<svg width="64" height="64" viewBox="0 0 64 64" fill="none" xmlns="http://www.w3.org/2000/svg">
  <!-- Background circle with gradient -->
  <circle cx="32" cy="32" r="30" fill="url(#gradient1)" stroke="url(#gradient2)" stroke-width="2"/>
  
  <!-- Mosque dome -->
  <path d="M32 8 C38 8, 42 12, 42 18 L42 28 L22 28 L22 18 C22 12, 26 8, 32 8 Z" fill="url(#gradient3)"/>
  
  <!-- Mosque minaret -->
  <rect x="30" y="4" width="4" height="8" fill="url(#gradient4)" rx="2"/>
  <circle cx="32" cy="4" r="2" fill="#FFD700"/>
  
  <!-- Quran book -->
  <rect x="24" y="32" width="16" height="12" fill="url(#gradient5)" rx="2"/>
  <rect x="25" y="33" width="14" height="10" fill="#FFFFFF" rx="1"/>
  
  <!-- Arabic calligraphy lines -->
  <line x1="27" y1="36" x2="37" y2="36" stroke="#2563EB" stroke-width="1"/>
  <line x1="27" y1="38" x2="35" y2="38" stroke="#2563EB" stroke-width="1"/>
  <line x1="27" y1="40" x2="37" y2="40" stroke="#2563EB" stroke-width="1"/>
  
  <!-- Star and crescent -->
  <path d="M45 20 L47 24 L51 24 L48 27 L49 31 L45 29 L41 31 L42 27 L39 24 L43 24 Z" fill="#FFD700"/>
  <path d="M48 16 C50 16, 52 18, 52 20 C52 22, 50 24, 48 24 C49 22, 49 18, 48 16 Z" fill="#FFD700"/>
  
  <!-- Decorative elements -->
  <circle cx="16" cy="16" r="2" fill="#FFD700" opacity="0.7"/>
  <circle cx="48" cy="48" r="2" fill="#FFD700" opacity="0.7"/>
  <circle cx="16" cy="48" r="1.5" fill="#FFFFFF" opacity="0.5"/>
  
  <!-- Gradients -->
  <defs>
    <linearGradient id="gradient1" x1="0%" y1="0%" x2="100%" y2="100%">
      <stop offset="0%" style="stop-color:#3B82F6;stop-opacity:1" />
      <stop offset="50%" style="stop-color:#8B5CF6;stop-opacity:1" />
      <stop offset="100%" style="stop-color:#EC4899;stop-opacity:1" />
    </linearGradient>
    <linearGradient id="gradient2" x1="0%" y1="0%" x2="100%" y2="100%">
      <stop offset="0%" style="stop-color:#FFD700;stop-opacity:1" />
      <stop offset="100%" style="stop-color:#FFA500;stop-opacity:1" />
    </linearGradient>
    <linearGradient id="gradient3" x1="0%" y1="0%" x2="100%" y2="100%">
      <stop offset="0%" style="stop-color:#10B981;stop-opacity:1" />
      <stop offset="100%" style="stop-color:#059669;stop-opacity:1" />
    </linearGradient>
    <linearGradient id="gradient4" x1="0%" y1="0%" x2="100%" y2="100%">
      <stop offset="0%" style="stop-color:#F59E0B;stop-opacity:1" />
      <stop offset="100%" style="stop-color:#D97706;stop-opacity:1" />
    </linearGradient>
    <linearGradient id="gradient5" x1="0%" y1="0%" x2="100%" y2="100%">
      <stop offset="0%" style="stop-color:#7C3AED;stop-opacity:1" />
      <stop offset="100%" style="stop-color:#5B21B6;stop-opacity:1" />
    </linearGradient>
  </defs>
</svg>